<mxfile modified="2020-07-25T12:29:29.074Z" host="app.diagrams.net" agent="5.0 (Windows NT 10.0; Win64; x64) AppleWebKit/537.36 (KHTML, like Gecko) Chrome/83.0.4103.106 YaBrowser/20.7.1.70 Yowser/2.5 Yptp/1.23 Safari/537.36" etag="ZbzUShGMZCb2Yu6unqVx" version="13.5.3" type="github">
  <diagram id="Ht1M8jgEwFfnCIfOTk4-" name="Page-1">
    <mxGraphModel dx="1049" dy="670" grid="1" gridSize="10" guides="1" tooltips="1" connect="1" arrows="1" fold="1" page="1" pageScale="1" pageWidth="1169" pageHeight="827" math="0" shadow="0">
      <root>
        <mxCell id="0" />
        <mxCell id="1" parent="0" />
        <mxCell id="TbIDG-mHYKaPXXswAoUh-10" style="edgeStyle=orthogonalEdgeStyle;rounded=0;orthogonalLoop=1;jettySize=auto;html=1;" edge="1" parent="1" source="TbIDG-mHYKaPXXswAoUh-1" target="TbIDG-mHYKaPXXswAoUh-6">
          <mxGeometry relative="1" as="geometry" />
        </mxCell>
        <mxCell id="TbIDG-mHYKaPXXswAoUh-13" style="edgeStyle=orthogonalEdgeStyle;rounded=0;orthogonalLoop=1;jettySize=auto;html=1;entryX=0;entryY=0.5;entryDx=0;entryDy=0;" edge="1" parent="1" source="TbIDG-mHYKaPXXswAoUh-1" target="TbIDG-mHYKaPXXswAoUh-8">
          <mxGeometry relative="1" as="geometry" />
        </mxCell>
        <mxCell id="TbIDG-mHYKaPXXswAoUh-15" value="ETL/ELT" style="edgeLabel;html=1;align=center;verticalAlign=middle;resizable=0;points=[];" vertex="1" connectable="0" parent="TbIDG-mHYKaPXXswAoUh-13">
          <mxGeometry x="0.8042" y="-1" relative="1" as="geometry">
            <mxPoint as="offset" />
          </mxGeometry>
        </mxCell>
        <mxCell id="TbIDG-mHYKaPXXswAoUh-1" value="Биллинг" style="shape=cylinder;whiteSpace=wrap;html=1;boundedLbl=1;backgroundOutline=1;" vertex="1" parent="1">
          <mxGeometry x="180" y="120" width="60" height="80" as="geometry" />
        </mxCell>
        <mxCell id="TbIDG-mHYKaPXXswAoUh-11" style="edgeStyle=orthogonalEdgeStyle;rounded=0;orthogonalLoop=1;jettySize=auto;html=1;entryX=0;entryY=0.5;entryDx=0;entryDy=0;" edge="1" parent="1" source="TbIDG-mHYKaPXXswAoUh-2" target="TbIDG-mHYKaPXXswAoUh-6">
          <mxGeometry relative="1" as="geometry" />
        </mxCell>
        <mxCell id="TbIDG-mHYKaPXXswAoUh-2" value="CRM" style="shape=cylinder;whiteSpace=wrap;html=1;boundedLbl=1;backgroundOutline=1;" vertex="1" parent="1">
          <mxGeometry x="180" y="220" width="60" height="80" as="geometry" />
        </mxCell>
        <mxCell id="TbIDG-mHYKaPXXswAoUh-12" style="edgeStyle=orthogonalEdgeStyle;rounded=0;orthogonalLoop=1;jettySize=auto;html=1;entryX=0;entryY=0.5;entryDx=0;entryDy=0;" edge="1" parent="1" source="TbIDG-mHYKaPXXswAoUh-3" target="TbIDG-mHYKaPXXswAoUh-6">
          <mxGeometry relative="1" as="geometry" />
        </mxCell>
        <mxCell id="TbIDG-mHYKaPXXswAoUh-14" value="ETL/ELT" style="edgeLabel;html=1;align=center;verticalAlign=middle;resizable=0;points=[];" vertex="1" connectable="0" parent="TbIDG-mHYKaPXXswAoUh-12">
          <mxGeometry x="0.7867" y="-2" relative="1" as="geometry">
            <mxPoint as="offset" />
          </mxGeometry>
        </mxCell>
        <mxCell id="TbIDG-mHYKaPXXswAoUh-3" value="Hyperion" style="shape=cylinder;whiteSpace=wrap;html=1;boundedLbl=1;backgroundOutline=1;" vertex="1" parent="1">
          <mxGeometry x="180" y="320" width="60" height="80" as="geometry" />
        </mxCell>
        <mxCell id="TbIDG-mHYKaPXXswAoUh-4" value="" style="endArrow=none;html=1;" edge="1" parent="1">
          <mxGeometry width="50" height="50" relative="1" as="geometry">
            <mxPoint x="360" y="400" as="sourcePoint" />
            <mxPoint x="360" y="120" as="targetPoint" />
          </mxGeometry>
        </mxCell>
        <mxCell id="TbIDG-mHYKaPXXswAoUh-5" value="Source Layer" style="text;html=1;strokeColor=none;fillColor=none;align=center;verticalAlign=middle;whiteSpace=wrap;rounded=0;" vertex="1" parent="1">
          <mxGeometry x="165" y="50" width="90" height="20" as="geometry" />
        </mxCell>
        <mxCell id="TbIDG-mHYKaPXXswAoUh-6" value="DWH Greenplum (Postgres)" style="shape=cylinder;whiteSpace=wrap;html=1;boundedLbl=1;backgroundOutline=1;" vertex="1" parent="1">
          <mxGeometry x="450" y="130" width="165" height="180" as="geometry" />
        </mxCell>
        <mxCell id="TbIDG-mHYKaPXXswAoUh-8" value="Hadoop" style="shape=cylinder;whiteSpace=wrap;html=1;boundedLbl=1;backgroundOutline=1;" vertex="1" parent="1">
          <mxGeometry x="503" y="320" width="60" height="80" as="geometry" />
        </mxCell>
        <mxCell id="TbIDG-mHYKaPXXswAoUh-16" value="" style="endArrow=none;html=1;" edge="1" parent="1">
          <mxGeometry width="50" height="50" relative="1" as="geometry">
            <mxPoint x="700" y="400" as="sourcePoint" />
            <mxPoint x="700" y="120" as="targetPoint" />
          </mxGeometry>
        </mxCell>
        <mxCell id="TbIDG-mHYKaPXXswAoUh-17" value="Storage Layer" style="text;html=1;strokeColor=none;fillColor=none;align=center;verticalAlign=middle;whiteSpace=wrap;rounded=0;" vertex="1" parent="1">
          <mxGeometry x="487.5" y="50" width="90" height="20" as="geometry" />
        </mxCell>
        <mxCell id="TbIDG-mHYKaPXXswAoUh-18" value="Бизнес-пользователь" style="shape=umlActor;verticalLabelPosition=bottom;verticalAlign=top;html=1;outlineConnect=0;" vertex="1" parent="1">
          <mxGeometry x="950" y="210" width="30" height="60" as="geometry" />
        </mxCell>
        <mxCell id="TbIDG-mHYKaPXXswAoUh-19" value="Business Layer" style="text;html=1;strokeColor=none;fillColor=none;align=center;verticalAlign=middle;whiteSpace=wrap;rounded=0;" vertex="1" parent="1">
          <mxGeometry x="830" y="50" width="90" height="20" as="geometry" />
        </mxCell>
        <mxCell id="TbIDG-mHYKaPXXswAoUh-27" style="edgeStyle=orthogonalEdgeStyle;rounded=0;orthogonalLoop=1;jettySize=auto;html=1;entryX=1;entryY=0.5;entryDx=0;entryDy=0;" edge="1" parent="1" source="TbIDG-mHYKaPXXswAoUh-20" target="TbIDG-mHYKaPXXswAoUh-6">
          <mxGeometry relative="1" as="geometry" />
        </mxCell>
        <mxCell id="TbIDG-mHYKaPXXswAoUh-20" value="MS Tabular" style="shape=cube;whiteSpace=wrap;html=1;boundedLbl=1;backgroundOutline=1;darkOpacity=0.05;darkOpacity2=0.1;" vertex="1" parent="1">
          <mxGeometry x="740" y="300" width="100" height="60" as="geometry" />
        </mxCell>
        <mxCell id="TbIDG-mHYKaPXXswAoUh-24" style="edgeStyle=orthogonalEdgeStyle;rounded=0;orthogonalLoop=1;jettySize=auto;html=1;entryX=1;entryY=0.5;entryDx=0;entryDy=0;" edge="1" parent="1" source="TbIDG-mHYKaPXXswAoUh-21" target="TbIDG-mHYKaPXXswAoUh-6">
          <mxGeometry relative="1" as="geometry" />
        </mxCell>
        <mxCell id="TbIDG-mHYKaPXXswAoUh-21" value="SQL" style="rounded=0;whiteSpace=wrap;html=1;" vertex="1" parent="1">
          <mxGeometry x="740" y="130" width="100" height="30" as="geometry" />
        </mxCell>
        <mxCell id="TbIDG-mHYKaPXXswAoUh-25" style="edgeStyle=orthogonalEdgeStyle;rounded=0;orthogonalLoop=1;jettySize=auto;html=1;entryX=1;entryY=0.5;entryDx=0;entryDy=0;" edge="1" parent="1" source="TbIDG-mHYKaPXXswAoUh-22" target="TbIDG-mHYKaPXXswAoUh-6">
          <mxGeometry relative="1" as="geometry">
            <Array as="points">
              <mxPoint x="678" y="210" />
              <mxPoint x="678" y="220" />
            </Array>
          </mxGeometry>
        </mxCell>
        <mxCell id="TbIDG-mHYKaPXXswAoUh-22" value="Qlik Sense" style="rounded=0;whiteSpace=wrap;html=1;" vertex="1" parent="1">
          <mxGeometry x="740" y="190" width="100" height="30" as="geometry" />
        </mxCell>
        <mxCell id="TbIDG-mHYKaPXXswAoUh-26" style="edgeStyle=orthogonalEdgeStyle;rounded=0;orthogonalLoop=1;jettySize=auto;html=1;entryX=1;entryY=0.5;entryDx=0;entryDy=0;" edge="1" parent="1" source="TbIDG-mHYKaPXXswAoUh-23" target="TbIDG-mHYKaPXXswAoUh-6">
          <mxGeometry relative="1" as="geometry" />
        </mxCell>
        <mxCell id="TbIDG-mHYKaPXXswAoUh-23" value="Power BI" style="rounded=0;whiteSpace=wrap;html=1;" vertex="1" parent="1">
          <mxGeometry x="740" y="240" width="100" height="30" as="geometry" />
        </mxCell>
      </root>
    </mxGraphModel>
  </diagram>
</mxfile>
